<?xml version="1.0" standalone="no"?>
<!DOCTYPE svg PUBLIC "-//W3C//DTD SVG 20010904//EN"
 "http://www.w3.org/TR/2001/REC-SVG-20010904/DTD/svg10.dtd">
<svg version="1.0" xmlns="http://www.w3.org/2000/svg"
 width="512.000000pt" height="512.000000pt" viewBox="0 0 512.000000 512.000000"
 preserveAspectRatio="xMidYMid meet">
<metadata>
Created by potrace 1.11, written by Peter Selinger 2001-2013
</metadata>
<g transform="translate(0.000000,512.000000) scale(0.100000,-0.100000)"
fill="#000000" stroke="none">
<path d="M1564 4694 c-47 -25 -83 -75 -97 -139 -12 -54 -13 -108 -6 -307 2
-32 0 -61 -4 -64 -4 -4 -2 -13 4 -21 7 -7 7 -13 2 -13 -11 0 -10 -125 1 -175
10 -46 27 -85 38 -85 5 0 7 -4 3 -9 -3 -6 3 -14 12 -20 28 -16 5 -13 -27 4
-17 9 -30 13 -30 10 0 -3 -18 4 -40 15 -76 39 -77 16 -2 -59 34 -35 56 -50 64
-45 7 5 1 -7 -14 -25 -16 -18 -28 -36 -28 -39 1 -16 17 -31 35 -31 39 -1 55
-4 56 -13 1 -4 2 -14 3 -20 1 -7 -1 -21 -6 -30 -5 -10 -10 -34 -11 -53 -2 -22
-11 -41 -24 -50 -18 -13 -25 -13 -53 1 -25 13 -47 15 -103 10 -40 -4 -81 -7
-92 -7 -36 -1 -100 13 -103 22 -2 5 -12 4 -23 -1 -10 -6 -19 -7 -19 -2 0 5 -6
9 -12 10 -7 1 -24 3 -38 5 -27 3 -98 -17 -90 -25 3 -3 -4 -15 -14 -27 -14 -16
-16 -21 -5 -21 8 0 10 -3 4 -8 -13 -10 -18 -56 -13 -149 1 -35 -4 -47 -30 -74
-70 -72 -102 -206 -64 -269 20 -34 64 -80 71 -76 3 2 6 -30 7 -72 2 -123 18
-190 71 -299 30 -60 39 -72 64 -75 35 -5 44 13 33 69 -5 21 -7 42 -6 46 1 5 4
31 7 59 2 27 6 53 9 56 3 3 6 0 6 -5 0 -7 12 -9 29 -7 38 6 54 -10 158 -154
52 -73 123 -211 126 -244 1 -10 6 -18 11 -18 5 0 7 -2 4 -6 -3 -3 -2 -22 3
-42 6 -20 12 -48 14 -62 3 -14 10 -47 17 -75 6 -27 12 -61 12 -75 1 -14 5 -31
10 -38 4 -7 6 -16 3 -18 -2 -3 -1 -22 4 -42 12 -50 21 -109 24 -157 2 -22 4
-40 5 -40 6 0 6 -242 0 -250 -4 -5 -10 -22 -14 -36 -13 -55 -116 -133 -188
-143 -40 -5 -116 -32 -135 -47 -7 -6 -13 -27 -13 -45 0 -52 26 -65 169 -87
l74 -12 4 -35 c7 -63 39 -174 58 -198 24 -31 95 -92 108 -92 6 0 7 -3 4 -7
-11 -11 44 -33 90 -37 24 -2 46 -6 49 -8 13 -14 154 27 154 45 0 5 4 6 9 3 9
-6 55 41 111 114 19 25 39 48 45 52 5 4 6 8 1 8 -6 0 0 9 12 20 12 12 22 26
22 33 0 7 11 22 25 35 13 13 24 27 23 30 -2 12 15 46 33 66 10 10 15 24 13 31
-3 7 2 15 10 18 9 4 16 13 16 22 0 8 5 15 11 15 5 0 8 4 4 9 -3 5 -1 12 5 16
6 4 7 11 4 17 -4 6 -3 8 3 5 5 -3 17 3 26 14 9 10 14 19 10 19 -3 0 2 9 11 19
10 11 15 25 11 31 -3 6 -3 10 2 9 19 -3 34 2 29 10 -3 4 6 13 20 20 19 8 25
17 21 31 -3 11 2 25 11 32 13 11 14 11 7 -2 -9 -14 63 37 96 69 36 35 69 60
69 53 0 -4 6 0 13 9 7 10 37 30 67 47 30 16 54 34 53 39 -1 5 7 9 17 10 11 1
25 7 32 12 7 6 29 25 48 41 19 16 41 30 48 30 6 0 12 5 12 10 0 6 7 10 15 10
9 0 18 6 21 14 3 8 15 17 27 20 12 3 28 19 36 36 7 17 16 29 19 26 3 -3 18 12
34 34 17 22 34 40 39 40 5 0 9 6 9 14 0 8 9 21 20 29 11 8 18 16 15 19 -3 3 6
17 19 31 14 15 22 27 19 27 -3 0 0 7 7 15 6 8 8 20 4 26 -4 8 -3 9 4 5 7 -4
21 12 36 41 21 41 29 46 25 17 0 -3 8 -12 18 -21 10 -8 13 -12 6 -8 -8 4 -12
-4 -10 -25 1 -16 5 -30 9 -30 8 0 3 -34 -8 -52 -5 -7 -3 -8 6 -3 10 6 12 0 8
-24 -3 -18 0 -31 6 -31 8 0 8 -3 1 -8 -6 -4 -10 -14 -10 -22 1 -8 -1 -19 -4
-25 -3 -5 -6 -12 -6 -15 -8 -49 -19 -99 -27 -113 -7 -14 -5 -17 12 -17 13 0
19 4 14 12 -4 6 1 17 11 25 13 9 14 13 5 13 -10 0 -10 3 2 13 9 6 18 21 20 32
2 11 6 22 9 25 16 13 69 112 64 121 -4 5 1 9 10 9 9 0 13 5 10 10 -3 6 -1 10
6 10 7 0 9 3 6 6 -4 4 2 19 12 33 14 19 17 31 10 44 -8 14 -7 15 8 10 16 -6
17 -5 3 12 -8 10 -10 16 -4 12 7 -4 14 0 18 8 3 8 1 17 -4 20 -6 4 -10 12 -10
18 0 8 3 8 9 -1 6 -10 10 -8 14 10 4 12 7 33 7 44 0 12 7 27 15 34 13 11 14
10 9 -4 -6 -15 -2 -17 28 -20 7 -1 22 -10 34 -21 39 -35 54 -46 54 -38 0 4 6
-1 13 -11 21 -28 53 -6 55 36 5 150 10 230 16 235 3 3 1 12 -6 20 -6 8 -7 13
-2 12 21 -4 35 2 29 11 -3 6 1 10 9 10 9 0 16 5 16 11 0 6 14 24 30 39 17 15
30 35 30 45 0 9 4 14 9 10 9 -5 27 32 23 48 -1 4 3 7 9 7 5 0 8 4 4 10 -9 14
6 60 19 60 16 0 41 -73 32 -89 -4 -6 0 -14 8 -17 9 -3 16 -15 16 -25 0 -12 5
-16 14 -13 8 3 12 13 9 25 -3 10 1 27 8 36 12 14 12 16 -1 8 -10 -6 -9 -2 3
12 17 20 17 21 0 39 -16 16 -16 17 -1 11 13 -5 19 2 27 29 5 20 7 42 4 50 -3
8 1 14 8 14 8 0 5 6 -7 15 -10 8 -14 14 -9 13 15 -4 56 28 47 37 -4 4 3 2 16
-4 18 -10 22 -9 22 3 0 9 6 13 15 10 8 -3 20 -2 27 2 7 5 18 9 23 9 6 1 9 6 8
13 -2 6 4 9 12 6 15 -6 75 16 75 27 0 4 8 9 18 11 10 3 19 13 19 22 0 9 -2 14
-5 11 -2 -2 -13 6 -23 18 -18 20 -19 21 -13 2 6 -20 5 -20 -10 -1 -9 11 -16
23 -16 28 0 4 -6 8 -12 8 -7 0 -29 14 -48 30 -30 25 -32 28 -11 23 16 -4 22
-2 18 4 -5 7 0 9 13 6 11 -3 20 0 20 6 0 6 7 11 15 11 8 0 26 10 41 23 14 12
26 20 27 18 4 -10 47 21 44 32 -1 7 7 11 21 9 12 -2 22 1 22 6 0 6 11 13 25
16 14 4 24 12 22 19 -1 6 4 11 11 9 17 -3 64 33 54 42 -3 4 1 4 11 0 12 -4 17
-1 17 9 0 9 5 19 12 23 7 5 8 2 3 -7 -4 -8 2 -5 13 6 36 35 51 45 63 45 6 0 8
7 5 16 -3 9 -2 12 5 9 5 -4 22 5 36 19 14 14 30 26 36 26 5 0 4 7 -3 15 -11
13 -10 14 5 9 14 -6 16 -4 10 6 -5 7 -4 11 1 7 10 -6 39 12 45 28 2 6 7 9 12
7 4 -1 7 2 7 6 0 5 11 22 24 37 14 16 22 33 19 38 -3 6 -2 7 4 4 11 -7 31 15
52 56 9 16 23 27 35 27 30 0 40 9 82 70 20 30 42 58 49 62 23 14 1 98 -25 98
-11 0 -22 5 -25 10 -4 7 -11 8 -18 1 -7 -5 -31 -8 -54 -8 -22 1 -39 -1 -36 -5
2 -5 -2 -8 -9 -9 -74 -3 -148 -12 -223 -25 -16 -3 -48 -7 -70 -9 -22 -3 -51
-7 -65 -10 -14 -3 -45 -8 -70 -10 -25 -3 -54 -7 -66 -10 -33 -7 -117 -18 -136
-17 -10 0 -18 -3 -18 -7 0 -4 -12 -8 -27 -9 -36 -2 -118 -10 -163 -17 -48 -8
-112 -14 -195 -19 -38 -3 -70 -6 -70 -6 0 -8 -93 -4 -104 4 -11 8 -13 8 -7 -2
6 -10 -14 -12 -101 -7 -59 3 -130 8 -158 11 -27 3 -61 5 -74 5 -12 -1 -28 2
-34 6 -7 4 -25 8 -42 10 -30 2 -47 6 -75 15 -8 3 -35 11 -60 18 -81 23 -110
34 -110 43 0 4 -5 5 -10 2 -6 -3 -10 -1 -10 6 0 7 -3 9 -7 6 -3 -4 -11 -3 -17
2 -27 21 -290 97 -371 107 -11 1 -20 3 -20 4 0 1 -7 3 -15 5 -38 9 -118 26
-150 32 -26 4 -54 25 -107 78 -40 40 -73 78 -73 84 0 7 -4 9 -10 6 -5 -3 -10
-2 -10 3 0 5 -27 40 -61 78 -34 38 -95 114 -136 169 -41 55 -81 108 -89 118
-8 9 -14 20 -14 23 0 8 -63 70 -90 87 -30 19 -99 20 -136 1z m2566 -1534 c0
-5 -5 -10 -11 -10 -5 0 -7 5 -4 10 3 6 8 10 11 10 2 0 4 -4 4 -10z"/>
</g>
</svg>
